# xmcd
#
# Track frame offsets:
#  150
#  22432
#  43215
#  64792
#  85437
#  103007
#  122432
#  142987
#  161275
#  180717
#  199087
#  210937
#  226075
#  241167
#  259485
#
# Disc length: 3687 seconds
#
# Revision: 0
# Processed by: cddbd v1.4PL0 Copyright (c) Steve Scherf et al.
# Submitted via: AltoMP3_Maker 3.0
#
DISCID=ce0e650f
DTITLE=周华健 - 有故事的人
DYEAR=1900
DGENRE=
TTITLE0=应该
TTITLE1=有故事的人
TTITLE2=最近比较烦
TTITLE3=疏远
TTITLE4=月光光
TTITLE5=健忘
TTITLE6=我还是一样
TTITLE7=谁来晚餐
TTITLE8=喝一杯酒
TTITLE9=你是我心中的绿
TTITLE10=花心
TTITLE11=小天堂
TTITLE12=爱相随
TTITLE13=风雨无阻
TTITLE14=孤枕难眠
EXTD=
EXTT0=
EXTT1=
EXTT2=
EXTT3=
EXTT4=
EXTT5=
EXTT6=
EXTT7=
EXTT8=
EXTT9=
EXTT10=
EXTT11=
EXTT12=
EXTT13=
EXTT14=
PLAYORDER=
